<svg width="45" height="45" viewBox="0 0 45 45" fill="none" xmlns="http://www.w3.org/2000/svg">
<path fill-rule="evenodd" clip-rule="evenodd" d="M13.9969 1.99875C16.1963 1.8975 16.8975 1.875 22.5 1.875C28.1025 1.875 28.8038 1.89937 31.0013 1.99875C33.1988 2.09812 34.6987 2.44875 36.0112 2.95688C37.3856 3.47625 38.6325 4.28812 39.6637 5.33812C40.7137 6.3675 41.5238 7.6125 42.0413 8.98875C42.5513 10.3013 42.9 11.8013 43.0013 13.995C43.1025 16.1981 43.125 16.8994 43.125 22.5C43.125 28.1006 43.1006 28.8037 43.0013 31.0031C42.9019 33.1969 42.5513 34.6969 42.0413 36.0094C41.5235 37.3857 40.7122 38.6327 39.6637 39.6637C38.6325 40.7137 37.3856 41.5238 36.0112 42.0413C34.6987 42.5513 33.1987 42.9 31.005 43.0013C28.8037 43.1025 28.1025 43.125 22.5 43.125C16.8975 43.125 16.1963 43.1006 13.9969 43.0013C11.8031 42.9019 10.3031 42.5513 8.99063 42.0413C7.61431 41.5235 6.36728 40.7122 5.33625 39.6637C4.28734 38.6334 3.4754 37.3871 2.95688 36.0112C2.44875 34.6987 2.1 33.1987 1.99875 31.005C1.8975 28.8019 1.875 28.1006 1.875 22.5C1.875 16.8994 1.89937 16.1963 1.99875 13.9988C2.09812 11.8013 2.44875 10.3013 2.95688 8.98875C3.47595 7.61276 4.28853 6.36637 5.33812 5.33625C6.36788 4.28756 7.6136 3.47564 8.98875 2.95688C10.3013 2.44875 11.8031 2.1 13.9969 1.99875ZM30.8325 5.71125C28.6575 5.61188 28.005 5.59125 22.4981 5.59125C16.9912 5.59125 16.3387 5.61188 14.1637 5.71125C12.1519 5.80313 11.0606 6.13875 10.3331 6.42187C9.37125 6.79687 8.68312 7.24125 7.96125 7.96313C7.27636 8.62836 6.74965 9.43893 6.42 10.335C6.13688 11.0625 5.80125 12.1537 5.70938 14.1656C5.61 16.3406 5.58937 16.9931 5.58937 22.5C5.58937 28.0069 5.61 28.6594 5.70938 30.8344C5.80125 32.8462 6.13688 33.9375 6.42 34.665C6.75 35.5594 7.27687 36.3713 7.96125 37.0369C8.62687 37.7213 9.43875 38.2481 10.3331 38.5781C11.0606 38.8613 12.1519 39.1969 14.1637 39.2888C16.3387 39.3881 16.9894 39.4087 22.4981 39.4087C28.0069 39.4087 28.6575 39.3881 30.8325 39.2888C32.8444 39.1969 33.9356 38.8613 34.6631 38.5781C35.625 38.2031 36.3131 37.7588 37.035 37.0369C37.7194 36.3713 38.2462 35.5594 38.5762 34.665C38.8594 33.9375 39.195 32.8462 39.2869 30.8344C39.3862 28.6594 39.4069 28.0069 39.4069 22.5C39.4069 16.9931 39.3862 16.3406 39.2869 14.1656C39.195 12.1537 38.8594 11.0625 38.5762 10.335C38.2012 9.37313 37.7569 8.685 37.035 7.96313C36.3698 7.27824 35.5592 6.75153 34.6631 6.42187C33.9356 6.13875 32.8444 5.80313 30.8325 5.71125ZM19.8637 28.8581C21.335 29.4706 22.9732 29.5532 24.4986 29.092C26.024 28.6307 27.342 27.6542 28.2274 26.3292C29.1128 25.0042 29.5107 23.4129 29.3532 21.8271C29.1957 20.2413 28.4925 18.7593 27.3637 17.6344C26.6442 16.9153 25.7741 16.3646 24.8163 16.0222C23.8584 15.6797 22.8364 15.5538 21.8241 15.6537C20.8117 15.7535 19.834 16.0766 18.9615 16.5996C18.089 17.1227 17.3433 17.8326 16.7781 18.6785C16.2129 19.5243 15.8422 20.4849 15.6928 21.4912C15.5435 22.4974 15.619 23.5243 15.9141 24.4978C16.2092 25.4714 16.7165 26.3674 17.3995 27.1214C18.0824 27.8753 18.924 28.4685 19.8637 28.8581ZM15.0037 15.0037C15.9882 14.0193 17.1568 13.2384 18.4431 12.7057C19.7293 12.1729 21.1078 11.8987 22.5 11.8987C23.8922 11.8987 25.2707 12.1729 26.5569 12.7057C27.8432 13.2384 29.0118 14.0193 29.9963 15.0037C30.9807 15.9882 31.7616 17.1568 32.2943 18.4431C32.8271 19.7293 33.1013 21.1078 33.1013 22.5C33.1013 23.8922 32.8271 25.2707 32.2943 26.5569C31.7616 27.8432 30.9807 29.0118 29.9963 29.9963C28.0081 31.9844 25.3116 33.1013 22.5 33.1013C19.6884 33.1013 16.9919 31.9844 15.0037 29.9963C13.0156 28.0081 11.8987 25.3116 11.8987 22.5C11.8987 19.6884 13.0156 16.9919 15.0037 15.0037ZM35.4525 13.4775C35.6964 13.2474 35.8917 12.9707 36.0268 12.6637C36.1619 12.3568 36.234 12.0258 36.2389 11.6905C36.2438 11.3552 36.1814 11.0223 36.0553 10.7115C35.9292 10.4008 35.7421 10.1185 35.5049 9.88132C35.2678 9.64419 34.9855 9.45705 34.6747 9.33097C34.364 9.2049 34.0311 9.14245 33.6958 9.14734C33.3604 9.15223 33.0295 9.22435 32.7225 9.35943C32.4156 9.49451 32.1389 9.6898 31.9087 9.93375C31.4612 10.4082 31.2162 11.0384 31.2257 11.6905C31.2352 12.3426 31.4985 12.9654 31.9597 13.4266C32.4209 13.8878 33.0436 14.1511 33.6958 14.1606C34.3479 14.1701 34.9781 13.925 35.4525 13.4775Z" fill="white"/>
</svg>
